<svg xmlns="http://www.w3.org/2000/svg" xmlns:xlink="http://www.w3.org/1999/xlink" width="500" zoomAndPan="magnify" viewBox="0 0 375 374.999991" height="500" preserveAspectRatio="xMidYMid meet" version="1.0"><defs><g/><clipPath id="9845ce5700"><path d="M 94.15625 43.214844 L 280.90625 43.214844 L 280.90625 257.714844 L 94.15625 257.714844 Z M 94.15625 43.214844 " clip-rule="nonzero"/></clipPath><clipPath id="cc405ca746"><path d="M 136 131 L 253 131 L 253 204.542969 L 136 204.542969 Z M 136 131 " clip-rule="nonzero"/></clipPath></defs><g clip-path="url(#9845ce5700)"><path fill="#000000" d="M 187.492188 47.59375 L 185.964844 43.789062 L 96.8125 79.5625 C 95.183594 80.21875 94.15625 81.828125 94.25 83.585938 C 94.253906 83.652344 95.496094 107.054688 99.105469 133.773438 C 100.910156 147.136719 103.308594 161.324219 106.46875 173.90625 C 108.046875 180.203125 109.820312 186.097656 111.832031 191.316406 C 113.851562 196.535156 116.089844 201.082031 118.75 204.734375 C 120.375 206.941406 122.5625 209.265625 125.207031 211.792969 C 129.828125 216.199219 135.847656 221.15625 142.324219 226.167969 C 152.027344 233.6875 162.738281 241.308594 171.039062 247.0625 C 179.332031 252.8125 185.214844 256.699219 185.234375 256.710938 C 186.605469 257.617188 188.378906 257.617188 189.75 256.710938 C 189.777344 256.691406 203.417969 247.6875 218.480469 236.765625 C 226.015625 231.304688 233.902344 225.363281 240.660156 219.792969 C 244.035156 217.007812 247.132812 214.3125 249.777344 211.792969 C 252.421875 209.265625 254.609375 206.941406 256.230469 204.734375 C 258.894531 201.082031 261.132812 196.535156 263.152344 191.316406 C 266.667969 182.183594 269.46875 170.96875 271.757812 159.203125 C 275.183594 141.558594 277.414062 122.695312 278.804688 108.207031 C 280.191406 93.722656 280.730469 83.625 280.730469 83.585938 C 280.824219 81.828125 279.796875 80.21875 278.164062 79.5625 L 189.019531 43.789062 C 188.046875 43.398438 186.9375 43.398438 185.964844 43.789062 L 187.492188 47.59375 L 185.964844 51.398438 L 275.113281 87.171875 L 276.640625 83.367188 L 272.546875 83.148438 C 272.546875 83.148438 272.542969 83.230469 272.53125 83.40625 C 272.382812 86.085938 271.003906 109.460938 267.414062 135.152344 C 265.621094 147.992188 263.273438 161.410156 260.28125 173.039062 C 258.785156 178.855469 257.128906 184.21875 255.332031 188.8125 C 253.535156 193.402344 251.578125 197.21875 249.613281 199.894531 C 248.480469 201.453125 246.558594 203.539062 244.121094 205.863281 C 239.84375 209.9375 233.984375 214.777344 227.640625 219.691406 C 218.121094 227.066406 207.5 234.621094 199.277344 240.328125 C 195.164062 243.175781 191.648438 245.566406 189.164062 247.242188 C 187.921875 248.078125 186.9375 248.738281 186.265625 249.1875 C 185.925781 249.410156 185.667969 249.582031 185.492188 249.699219 C 185.320312 249.8125 185.234375 249.867188 185.234375 249.867188 L 187.492188 253.289062 L 189.75 249.867188 C 189.75 249.867188 189.703125 249.835938 189.601562 249.769531 C 188.027344 248.730469 174.414062 239.679688 159.914062 229.113281 C 152.667969 223.832031 145.195312 218.164062 138.929688 212.964844 C 135.796875 210.367188 132.96875 207.882812 130.636719 205.644531 C 128.304688 203.414062 126.464844 201.402344 125.367188 199.894531 C 123.339844 197.132812 121.320312 193.15625 119.480469 188.363281 C 116.242188 179.976562 113.496094 169.121094 111.273438 157.640625 C 107.925781 140.410156 105.707031 121.746094 104.335938 107.425781 C 103.648438 100.261719 103.171875 94.183594 102.867188 89.898438 C 102.714844 87.757812 102.609375 86.0625 102.535156 84.910156 C 102.503906 84.332031 102.476562 83.886719 102.460938 83.59375 C 102.449219 83.441406 102.445312 83.332031 102.4375 83.257812 C 102.433594 83.179688 102.433594 83.148438 102.433594 83.148438 L 98.339844 83.367188 L 99.867188 87.171875 L 189.019531 51.398438 L 187.492188 47.59375 L 185.964844 51.398438 L 187.492188 47.59375 " fill-opacity="1" fill-rule="nonzero"/></g><g fill="#000000" fill-opacity="1"><g transform="translate(59.101922, 286.29817)"><g><path d="M 11.703125 -17.8125 C 10.003906 -17.8125 8.691406 -17.171875 7.765625 -15.890625 C 6.835938 -14.617188 6.375 -12.847656 6.375 -10.578125 C 6.375 -5.828125 8.148438 -3.453125 11.703125 -3.453125 C 13.203125 -3.453125 15.007812 -3.828125 17.125 -4.578125 L 17.125 -0.796875 C 15.382812 -0.0664062 13.4375 0.296875 11.28125 0.296875 C 8.1875 0.296875 5.820312 -0.640625 4.1875 -2.515625 C 2.550781 -4.398438 1.734375 -7.09375 1.734375 -10.59375 C 1.734375 -12.8125 2.132812 -14.75 2.9375 -16.40625 C 3.738281 -18.070312 4.894531 -19.347656 6.40625 -20.234375 C 7.914062 -21.117188 9.679688 -21.5625 11.703125 -21.5625 C 13.765625 -21.5625 15.84375 -21.0625 17.9375 -20.0625 L 16.46875 -16.40625 C 15.675781 -16.78125 14.878906 -17.109375 14.078125 -17.390625 C 13.273438 -17.671875 12.484375 -17.8125 11.703125 -17.8125 Z M 11.703125 -17.8125 "/></g></g></g><g fill="#000000" fill-opacity="1"><g transform="translate(79.865203, 286.29817)"><g><path d="M 2.671875 0 L 2.671875 -21.265625 L 7.1875 -21.265625 L 7.1875 0 Z M 2.671875 0 "/></g></g></g><g fill="#000000" fill-opacity="1"><g transform="translate(91.511202, 286.29817)"><g><path d="M 7.1875 -11.828125 L 8.640625 -11.828125 C 10.066406 -11.828125 11.117188 -12.0625 11.796875 -12.53125 C 12.472656 -13.007812 12.8125 -13.757812 12.8125 -14.78125 C 12.8125 -15.78125 12.460938 -16.492188 11.765625 -16.921875 C 11.078125 -17.347656 10.003906 -17.5625 8.546875 -17.5625 L 7.1875 -17.5625 Z M 7.1875 -8.15625 L 7.1875 0 L 2.671875 0 L 2.671875 -21.265625 L 8.875 -21.265625 C 11.757812 -21.265625 13.894531 -20.738281 15.28125 -19.6875 C 16.664062 -18.632812 17.359375 -17.035156 17.359375 -14.890625 C 17.359375 -13.640625 17.015625 -12.523438 16.328125 -11.546875 C 15.640625 -10.578125 14.664062 -9.816406 13.40625 -9.265625 C 16.601562 -4.484375 18.6875 -1.394531 19.65625 0 L 14.65625 0 L 9.578125 -8.15625 Z M 7.1875 -8.15625 "/></g></g></g><g fill="#000000" fill-opacity="1"><g transform="translate(112.957907, 286.29817)"><g><path d="M 11.703125 -17.8125 C 10.003906 -17.8125 8.691406 -17.171875 7.765625 -15.890625 C 6.835938 -14.617188 6.375 -12.847656 6.375 -10.578125 C 6.375 -5.828125 8.148438 -3.453125 11.703125 -3.453125 C 13.203125 -3.453125 15.007812 -3.828125 17.125 -4.578125 L 17.125 -0.796875 C 15.382812 -0.0664062 13.4375 0.296875 11.28125 0.296875 C 8.1875 0.296875 5.820312 -0.640625 4.1875 -2.515625 C 2.550781 -4.398438 1.734375 -7.09375 1.734375 -10.59375 C 1.734375 -12.8125 2.132812 -14.75 2.9375 -16.40625 C 3.738281 -18.070312 4.894531 -19.347656 6.40625 -20.234375 C 7.914062 -21.117188 9.679688 -21.5625 11.703125 -21.5625 C 13.765625 -21.5625 15.84375 -21.0625 17.9375 -20.0625 L 16.46875 -16.40625 C 15.675781 -16.78125 14.878906 -17.109375 14.078125 -17.390625 C 13.273438 -17.671875 12.484375 -17.8125 11.703125 -17.8125 Z M 11.703125 -17.8125 "/></g></g></g><g fill="#000000" fill-opacity="1"><g transform="translate(133.721188, 286.29817)"><g><path d="M 19.984375 -21.265625 L 19.984375 -7.5 C 19.984375 -5.925781 19.628906 -4.546875 18.921875 -3.359375 C 18.222656 -2.179688 17.207031 -1.273438 15.875 -0.640625 C 14.550781 -0.015625 12.984375 0.296875 11.171875 0.296875 C 8.429688 0.296875 6.304688 -0.398438 4.796875 -1.796875 C 3.285156 -3.203125 2.53125 -5.125 2.53125 -7.5625 L 2.53125 -21.265625 L 7.03125 -21.265625 L 7.03125 -8.25 C 7.03125 -6.601562 7.359375 -5.394531 8.015625 -4.625 C 8.671875 -3.863281 9.757812 -3.484375 11.28125 -3.484375 C 12.757812 -3.484375 13.828125 -3.867188 14.484375 -4.640625 C 15.148438 -5.410156 15.484375 -6.625 15.484375 -8.28125 L 15.484375 -21.265625 Z M 19.984375 -21.265625 "/></g></g></g><g fill="#000000" fill-opacity="1"><g transform="translate(158.017948, 286.29817)"><g><path d="M 2.671875 0 L 2.671875 -21.265625 L 7.1875 -21.265625 L 7.1875 0 Z M 2.671875 0 "/></g></g></g><g fill="#000000" fill-opacity="1"><g transform="translate(169.663943, 286.29817)"><g><path d="M 10.875 0 L 6.375 0 L 6.375 -17.515625 L 0.59375 -17.515625 L 0.59375 -21.265625 L 16.65625 -21.265625 L 16.65625 -17.515625 L 10.875 -17.515625 Z M 10.875 0 "/></g></g></g><g fill="#000000" fill-opacity="1"><g transform="translate(188.696821, 286.29817)"><g/></g></g><g fill="#000000" fill-opacity="1"><g transform="translate(198.219814, 286.29817)"><g><path d="M 11.703125 -17.8125 C 10.003906 -17.8125 8.691406 -17.171875 7.765625 -15.890625 C 6.835938 -14.617188 6.375 -12.847656 6.375 -10.578125 C 6.375 -5.828125 8.148438 -3.453125 11.703125 -3.453125 C 13.203125 -3.453125 15.007812 -3.828125 17.125 -4.578125 L 17.125 -0.796875 C 15.382812 -0.0664062 13.4375 0.296875 11.28125 0.296875 C 8.1875 0.296875 5.820312 -0.640625 4.1875 -2.515625 C 2.550781 -4.398438 1.734375 -7.09375 1.734375 -10.59375 C 1.734375 -12.8125 2.132812 -14.75 2.9375 -16.40625 C 3.738281 -18.070312 4.894531 -19.347656 6.40625 -20.234375 C 7.914062 -21.117188 9.679688 -21.5625 11.703125 -21.5625 C 13.765625 -21.5625 15.84375 -21.0625 17.9375 -20.0625 L 16.46875 -16.40625 C 15.675781 -16.78125 14.878906 -17.109375 14.078125 -17.390625 C 13.273438 -17.671875 12.484375 -17.8125 11.703125 -17.8125 Z M 11.703125 -17.8125 "/></g></g></g><g fill="#000000" fill-opacity="1"><g transform="translate(218.983093, 286.29817)"><g><path d="M 21.96875 -10.65625 C 21.96875 -7.132812 21.09375 -4.425781 19.34375 -2.53125 C 17.601562 -0.644531 15.101562 0.296875 11.84375 0.296875 C 8.59375 0.296875 6.09375 -0.644531 4.34375 -2.53125 C 2.601562 -4.425781 1.734375 -7.144531 1.734375 -10.6875 C 1.734375 -14.226562 2.609375 -16.929688 4.359375 -18.796875 C 6.109375 -20.660156 8.613281 -21.59375 11.875 -21.59375 C 15.144531 -21.59375 17.644531 -20.648438 19.375 -18.765625 C 21.101562 -16.890625 21.96875 -14.1875 21.96875 -10.65625 Z M 6.453125 -10.65625 C 6.453125 -8.28125 6.898438 -6.488281 7.796875 -5.28125 C 8.703125 -4.082031 10.050781 -3.484375 11.84375 -3.484375 C 15.445312 -3.484375 17.25 -5.875 17.25 -10.65625 C 17.25 -15.445312 15.457031 -17.84375 11.875 -17.84375 C 10.082031 -17.84375 8.726562 -17.238281 7.8125 -16.03125 C 6.90625 -14.820312 6.453125 -13.03125 6.453125 -10.65625 Z M 6.453125 -10.65625 "/></g></g></g><g fill="#000000" fill-opacity="1"><g transform="translate(244.472222, 286.29817)"><g><path d="M 7.109375 0 L 2.671875 0 L 2.671875 -21.265625 L 14.859375 -21.265625 L 14.859375 -17.5625 L 7.109375 -17.5625 L 7.109375 -12.078125 L 14.328125 -12.078125 L 14.328125 -8.40625 L 7.109375 -8.40625 Z M 7.109375 0 "/></g></g></g><g fill="#000000" fill-opacity="1"><g transform="translate(262.603551, 286.29817)"><g><path d="M 7.109375 0 L 2.671875 0 L 2.671875 -21.265625 L 14.859375 -21.265625 L 14.859375 -17.5625 L 7.109375 -17.5625 L 7.109375 -12.078125 L 14.328125 -12.078125 L 14.328125 -8.40625 L 7.109375 -8.40625 Z M 7.109375 0 "/></g></g></g><g fill="#000000" fill-opacity="1"><g transform="translate(280.73488, 286.29817)"><g><path d="M 14.921875 0 L 2.671875 0 L 2.671875 -21.265625 L 14.921875 -21.265625 L 14.921875 -17.5625 L 7.1875 -17.5625 L 7.1875 -12.890625 L 14.375 -12.890625 L 14.375 -9.203125 L 7.1875 -9.203125 L 7.1875 -3.71875 L 14.921875 -3.71875 Z M 14.921875 0 "/></g></g></g><g fill="#000000" fill-opacity="1"><g transform="translate(299.200663, 286.29817)"><g><path d="M 14.921875 0 L 2.671875 0 L 2.671875 -21.265625 L 14.921875 -21.265625 L 14.921875 -17.5625 L 7.1875 -17.5625 L 7.1875 -12.890625 L 14.375 -12.890625 L 14.375 -9.203125 L 7.1875 -9.203125 L 7.1875 -3.71875 L 14.921875 -3.71875 Z M 14.921875 0 "/></g></g></g><g fill="#004aad" fill-opacity="1"><g transform="translate(105.746173, 299.09878)"><g><path d="M 5.71875 -8.703125 C 4.882812 -8.703125 4.238281 -8.390625 3.78125 -7.765625 C 3.332031 -7.140625 3.109375 -6.269531 3.109375 -5.15625 C 3.109375 -2.84375 3.976562 -1.6875 5.71875 -1.6875 C 6.445312 -1.6875 7.332031 -1.867188 8.375 -2.234375 L 8.375 -0.390625 C 7.519531 -0.0351562 6.566406 0.140625 5.515625 0.140625 C 4.003906 0.140625 2.847656 -0.316406 2.046875 -1.234375 C 1.242188 -2.148438 0.84375 -3.460938 0.84375 -5.171875 C 0.84375 -6.253906 1.039062 -7.203125 1.4375 -8.015625 C 1.832031 -8.828125 2.394531 -9.445312 3.125 -9.875 C 3.863281 -10.3125 4.726562 -10.53125 5.71875 -10.53125 C 6.726562 -10.53125 7.742188 -10.285156 8.765625 -9.796875 L 8.046875 -8.015625 C 7.660156 -8.203125 7.269531 -8.363281 6.875 -8.5 C 6.476562 -8.632812 6.09375 -8.703125 5.71875 -8.703125 Z M 5.71875 -8.703125 "/></g></g></g><g fill="#004aad" fill-opacity="1"><g transform="translate(121.881758, 299.09878)"><g><path d="M 10.734375 -5.203125 C 10.734375 -3.484375 10.304688 -2.160156 9.453125 -1.234375 C 8.597656 -0.316406 7.375 0.140625 5.78125 0.140625 C 4.195312 0.140625 2.976562 -0.316406 2.125 -1.234375 C 1.269531 -2.160156 0.84375 -3.488281 0.84375 -5.21875 C 0.84375 -6.945312 1.269531 -8.265625 2.125 -9.171875 C 2.976562 -10.085938 4.203125 -10.546875 5.796875 -10.546875 C 7.398438 -10.546875 8.625 -10.085938 9.46875 -9.171875 C 10.3125 -8.253906 10.734375 -6.929688 10.734375 -5.203125 Z M 3.15625 -5.203125 C 3.15625 -4.046875 3.375 -3.171875 3.8125 -2.578125 C 4.25 -1.992188 4.90625 -1.703125 5.78125 -1.703125 C 7.539062 -1.703125 8.421875 -2.867188 8.421875 -5.203125 C 8.421875 -7.546875 7.546875 -8.71875 5.796875 -8.71875 C 4.921875 -8.71875 4.257812 -8.421875 3.8125 -7.828125 C 3.375 -7.242188 3.15625 -6.367188 3.15625 -5.203125 Z M 3.15625 -5.203125 "/></g></g></g><g fill="#004aad" fill-opacity="1"><g transform="translate(140.32518, 299.09878)"><g><path d="M 9.921875 -5.296875 C 9.921875 -3.585938 9.429688 -2.273438 8.453125 -1.359375 C 7.484375 -0.453125 6.082031 0 4.25 0 L 1.3125 0 L 1.3125 -10.390625 L 4.5625 -10.390625 C 6.257812 -10.390625 7.578125 -9.941406 8.515625 -9.046875 C 9.453125 -8.148438 9.921875 -6.898438 9.921875 -5.296875 Z M 7.640625 -5.234375 C 7.640625 -7.460938 6.65625 -8.578125 4.6875 -8.578125 L 3.515625 -8.578125 L 3.515625 -1.8125 L 4.453125 -1.8125 C 6.578125 -1.8125 7.640625 -2.953125 7.640625 -5.234375 Z M 7.640625 -5.234375 "/></g></g></g><g fill="#004aad" fill-opacity="1"><g transform="translate(157.959082, 299.09878)"><g><path d="M 7.28125 0 L 1.3125 0 L 1.3125 -10.390625 L 7.28125 -10.390625 L 7.28125 -8.578125 L 3.515625 -8.578125 L 3.515625 -6.296875 L 7.03125 -6.296875 L 7.03125 -4.5 L 3.515625 -4.5 L 3.515625 -1.8125 L 7.28125 -1.8125 Z M 7.28125 0 "/></g></g></g><g fill="#004aad" fill-opacity="1"><g transform="translate(172.9727, 299.09878)"><g/></g></g><g fill="#004aad" fill-opacity="1"><g transform="translate(183.619161, 299.09878)"><g><path d="M 7.671875 0 L 6.90625 -2.46875 L 3.125 -2.46875 L 2.375 0 L 0 0 L 3.671875 -10.421875 L 6.359375 -10.421875 L 10.03125 0 Z M 6.390625 -4.3125 C 5.691406 -6.550781 5.296875 -7.816406 5.203125 -8.109375 C 5.117188 -8.410156 5.054688 -8.644531 5.015625 -8.8125 C 4.859375 -8.207031 4.410156 -6.707031 3.671875 -4.3125 Z M 6.390625 -4.3125 "/></g></g></g><g fill="#004aad" fill-opacity="1"><g transform="translate(200.52166, 299.09878)"><g><path d="M 10.515625 0 L 7.71875 0 L 3.203125 -7.859375 L 3.140625 -7.859375 C 3.234375 -6.472656 3.28125 -5.484375 3.28125 -4.890625 L 3.28125 0 L 1.3125 0 L 1.3125 -10.390625 L 4.078125 -10.390625 L 8.59375 -2.609375 L 8.640625 -2.609375 C 8.566406 -3.953125 8.53125 -4.90625 8.53125 -5.46875 L 8.53125 -10.390625 L 10.515625 -10.390625 Z M 10.515625 0 "/></g></g></g><g fill="#004aad" fill-opacity="1"><g transform="translate(219.213626, 299.09878)"><g><path d="M 9.921875 -5.296875 C 9.921875 -3.585938 9.429688 -2.273438 8.453125 -1.359375 C 7.484375 -0.453125 6.082031 0 4.25 0 L 1.3125 0 L 1.3125 -10.390625 L 4.5625 -10.390625 C 6.257812 -10.390625 7.578125 -9.941406 8.515625 -9.046875 C 9.453125 -8.148438 9.921875 -6.898438 9.921875 -5.296875 Z M 7.640625 -5.234375 C 7.640625 -7.460938 6.65625 -8.578125 4.6875 -8.578125 L 3.515625 -8.578125 L 3.515625 -1.8125 L 4.453125 -1.8125 C 6.578125 -1.8125 7.640625 -2.953125 7.640625 -5.234375 Z M 7.640625 -5.234375 "/></g></g></g><g fill="#004aad" fill-opacity="1"><g transform="translate(236.847528, 299.09878)"><g/></g></g><g fill="#004aad" fill-opacity="1"><g transform="translate(247.493989, 299.09878)"><g><path d="M 3.515625 -5.78125 L 4.21875 -5.78125 C 4.914062 -5.78125 5.425781 -5.894531 5.75 -6.125 C 6.082031 -6.351562 6.25 -6.71875 6.25 -7.21875 C 6.25 -7.707031 6.078125 -8.054688 5.734375 -8.265625 C 5.398438 -8.472656 4.878906 -8.578125 4.171875 -8.578125 L 3.515625 -8.578125 Z M 3.515625 -3.984375 L 3.515625 0 L 1.3125 0 L 1.3125 -10.390625 L 4.328125 -10.390625 C 5.742188 -10.390625 6.789062 -10.128906 7.46875 -9.609375 C 8.144531 -9.097656 8.484375 -8.320312 8.484375 -7.28125 C 8.484375 -6.664062 8.3125 -6.117188 7.96875 -5.640625 C 7.632812 -5.160156 7.160156 -4.789062 6.546875 -4.53125 C 8.109375 -2.1875 9.128906 -0.675781 9.609375 0 L 7.15625 0 L 4.6875 -3.984375 Z M 3.515625 -3.984375 "/></g></g></g><g fill="#004aad" fill-opacity="1"><g transform="translate(263.963317, 299.09878)"><g><path d="M 7.28125 0 L 1.3125 0 L 1.3125 -10.390625 L 7.28125 -10.390625 L 7.28125 -8.578125 L 3.515625 -8.578125 L 3.515625 -6.296875 L 7.03125 -6.296875 L 7.03125 -4.5 L 3.515625 -4.5 L 3.515625 -1.8125 L 7.28125 -1.8125 Z M 7.28125 0 "/></g></g></g><g fill="#004aad" fill-opacity="1"><g transform="translate(278.976935, 299.09878)"><g><path d="M 1.3125 0 L 1.3125 -10.390625 L 3.515625 -10.390625 L 3.515625 -1.8125 L 7.71875 -1.8125 L 7.71875 0 Z M 1.3125 0 "/></g></g></g><g fill="#004aad" fill-opacity="1"><g transform="translate(294.061563, 299.09878)"><g><path d="M 7.671875 0 L 6.90625 -2.46875 L 3.125 -2.46875 L 2.375 0 L 0 0 L 3.671875 -10.421875 L 6.359375 -10.421875 L 10.03125 0 Z M 6.390625 -4.3125 C 5.691406 -6.550781 5.296875 -7.816406 5.203125 -8.109375 C 5.117188 -8.410156 5.054688 -8.644531 5.015625 -8.8125 C 4.859375 -8.207031 4.410156 -6.707031 3.671875 -4.3125 Z M 6.390625 -4.3125 "/></g></g></g><g fill="#004aad" fill-opacity="1"><g transform="translate(310.964062, 299.09878)"><g><path d="M 9.703125 0 L 7.1875 0 L 4.765625 -3.921875 L 2.359375 0 L 0 0 L 3.4375 -5.359375 L 0.21875 -10.390625 L 2.65625 -10.390625 L 4.890625 -6.640625 L 7.078125 -10.390625 L 9.453125 -10.390625 L 6.1875 -5.234375 Z M 9.703125 0 "/></g></g></g><g clip-path="url(#cc405ca746)"><path fill="#000000" d="M 251.804688 156.703125 C 249.90625 145.164062 236.550781 138.585938 226.199219 143.941406 C 225.859375 144.101562 225.855469 144.101562 225.796875 143.703125 C 225.261719 138.730469 226.546875 139.894531 221.660156 142.441406 C 204.773438 152.097656 184.382812 155.300781 165.359375 151.222656 C 156.527344 149.375 148.011719 145.921875 140.566406 140.804688 C 140.410156 140.695312 140.414062 140.621094 140.574219 140.496094 C 141.472656 139.796875 142.347656 139.058594 143.277344 138.40625 C 147.019531 135.792969 151.097656 133.707031 155.363281 132.09375 C 155.5 132.039062 155.691406 132.042969 155.714844 131.832031 C 149.480469 132.382812 143.027344 134.929688 137.78125 138.335938 C 137.441406 138.570312 137.222656 138.84375 137.175781 139.265625 C 134.191406 158.484375 139.222656 177.015625 156.488281 187.675781 C 176.449219 200.027344 205.554688 195.457031 218.789062 175.453125 C 222.804688 169.472656 225.109375 162.480469 225.691406 155.316406 C 225.726562 154.777344 225.902344 154.296875 226.160156 153.832031 C 227.621094 151.277344 230.449219 149.800781 233.324219 149.535156 C 239.277344 148.871094 244.34375 154.027344 244.609375 159.796875 C 245.171875 168.722656 239.214844 176.644531 232.640625 182.082031 C 223.648438 189.328125 212.183594 192.734375 201.136719 195.488281 C 180.3125 200.589844 158.15625 198.144531 138.496094 189.847656 C 151.257812 199.246094 167.722656 204.488281 183.785156 204.113281 C 204.152344 203.351562 229.910156 197.554688 243.78125 181.625 C 249.621094 174.867188 253.449219 165.710938 251.804688 156.703125 Z M 251.804688 156.703125 " fill-opacity="1" fill-rule="nonzero"/></g><path fill="#000000" d="M 158.675781 132.484375 C 159.730469 140.675781 166.8125 148.128906 175.011719 149.3125 C 166.804688 142.292969 163.484375 130.535156 172.214844 122.421875 C 176.496094 118.449219 181.667969 115.179688 184.390625 109.828125 C 190.988281 96.957031 180.292969 82.15625 168.71875 76.453125 C 166.921875 75.589844 169.492188 77.648438 169.757812 77.960938 C 174.457031 82.808594 178.367188 88.898438 178.390625 95.890625 C 178.160156 110.660156 156.496094 115.960938 158.675781 132.484375 Z M 158.675781 132.484375 " fill-opacity="1" fill-rule="nonzero"/><path fill="#000000" d="M 181.078125 123.804688 C 178.421875 125.894531 176.148438 128.464844 174.695312 131.539062 C 171.882812 137.648438 173.179688 146.230469 179.730469 149.308594 C 179.941406 149.417969 180.019531 149.339844 179.980469 149.101562 C 179.792969 147.90625 179.703125 146.703125 179.6875 145.496094 C 179.335938 137.273438 184.933594 133.289062 191.140625 129.296875 C 198.09375 124.949219 202.394531 116.957031 200.542969 108.734375 C 199.539062 102.378906 196.480469 96.363281 192.242188 91.554688 C 191.878906 91.382812 192.253906 92.171875 192.277344 92.300781 C 194.265625 97.789062 195.226562 103.953125 193.632812 109.660156 C 191.796875 116.0625 186.089844 119.949219 181.078125 123.804688 Z M 181.078125 123.804688 " fill-opacity="1" fill-rule="nonzero"/></svg>